<?xml version="1.0" encoding="UTF-8" standalone="no"?>
<svg
   version="1.1"
   viewBox="0 0 16 16"
   id="svg2"
   sodipodi:docname="drive-harddisk-arch-symbolic.svg"
   inkscape:version="1.4 (e7c3feb100, 2024-10-09)"
   xml:space="preserve"
   inkscape:export-filename="drive-harddisk-arch-symbolic.png"
   inkscape:export-xdpi="288"
   inkscape:export-ydpi="288"
   xmlns:inkscape="http://www.inkscape.org/namespaces/inkscape"
   xmlns:sodipodi="http://sodipodi.sourceforge.net/DTD/sodipodi-0.dtd"
   xmlns="http://www.w3.org/2000/svg"
   xmlns:svg="http://www.w3.org/2000/svg"><defs
     id="defs2" /><sodipodi:namedview
     id="namedview2"
     pagecolor="#ffffff"
     bordercolor="#000000"
     borderopacity="0.25"
     inkscape:showpageshadow="2"
     inkscape:pageopacity="0.0"
     inkscape:pagecheckerboard="0"
     inkscape:deskcolor="#d1d1d1"
     showgrid="false"
     inkscape:zoom="21.224883"
     inkscape:cx="5.2297109"
     inkscape:cy="12.202659"
     inkscape:window-width="1534"
     inkscape:window-height="831"
     inkscape:window-x="26"
     inkscape:window-y="23"
     inkscape:window-maximized="0"
     inkscape:current-layer="g2" /><g
     transform="translate(-492 -60)"
     fill="#808080"
     id="g2"><path
       d="m496.99 60c-1.2582 0.01454-2.1789-0.03056-2.9316 0.38477-0.37637 0.20766-0.67323 0.55938-0.83789 0.99805-0.16467 0.43866-0.22461 0.95958-0.22461 1.6172v10c0 0.65761 0.0599 1.1785 0.22461 1.6172 0.16467 0.43866 0.46152 0.79039 0.83789 0.99805 0.75275 0.41532 1.6734 0.3702 2.9316 0.38477h4e-3 5.0039 4e-3c1.2582-0.01454 2.1789 0.03056 2.9316-0.38477 0.37637-0.20766 0.67322-0.55938 0.83789-0.99805 0.16449-0.43866 0.22443-0.95958 0.22443-1.6172v-10c0-0.65761-0.0599-1.1785-0.22461-1.6172-0.16466-0.43867-0.46152-0.79038-0.83789-0.99805-0.75275-0.41533-1.6734-0.37025-2.9316-0.38477h-4e-3 -5.0039zm0.00586 1h5c1.2585 0.01469 2.0872 0.0598 2.4531 0.26172 0.18341 0.1012 0.28916 0.21274 0.38672 0.47266 0.09757 0.25991 0.16016 0.67323 0.16016 1.2656v10c0 0.59239-0.0626 1.0057-0.16016 1.2656-0.0976 0.25991-0.20331 0.37146-0.38672 0.47266-0.36595 0.20191-1.1946 0.24701-2.4531 0.26172h-4.9941-0.00586c-1.2585-0.01474-2.0891-0.05981-2.4551-0.26172-0.18341-0.10119-0.2872-0.21276-0.38476-0.47266-0.09757-0.2599-0.16016-0.67323-0.16016-1.2656v-10c0-0.59239 0.0626-1.0057 0.16016-1.2656 0.0976-0.25991 0.20135-0.37146 0.38476-0.47266 0.36596-0.20191 1.1966-0.24701 2.4551-0.26172z"
       color="#000000"
       color-rendering="auto"
       dominant-baseline="auto"
       image-rendering="auto"
       shape-rendering="auto"
       solid-color="#000000"
       style="font-feature-settings:normal;font-variant-alternates:normal;font-variant-caps:normal;font-variant-ligatures:normal;font-variant-numeric:normal;font-variant-position:normal;isolation:auto;mix-blend-mode:normal;shape-padding:0;text-decoration-color:#000000;text-decoration-line:none;text-decoration-style:solid;text-indent:0;text-orientation:mixed;text-transform:none;white-space:normal"
       id="path1" /><path
       d="m 499.49915,63.5 c -0.40066,0.98234 -0.64232,1.624906 -1.0884,2.578045 0.27351,0.289923 0.60922,0.627553 1.15441,1.008874 -0.58614,-0.2412 -0.98595,-0.48336 -1.28474,-0.73465 -0.5709,1.191307 -1.46533,2.88827 -3.28042,6.14973 1.4266,-0.823629 2.53247,-1.331406 3.56309,-1.52516 -0.0442,-0.190349 -0.0694,-0.396247 -0.0677,-0.61108 l 0.002,-0.0457 c 0.0226,-0.914019 0.49809,-1.616898 1.06131,-1.569174 0.56322,0.04772 1.001,0.827814 0.97837,1.741831 -0.004,0.171989 -0.0237,0.337441 -0.0576,0.490895 1.01943,0.199427 2.11348,0.705903 3.52078,1.518389 -0.27749,-0.510899 -0.52518,-0.971438 -0.76171,-1.410054 -0.37257,-0.288779 -0.76118,-0.664627 -1.55388,-1.071505 0.54485,0.141581 0.93496,0.304928 1.23904,0.48751 -2.40486,-4.477604 -2.59961,-5.072585 -3.42429,-7.00795 z"
       id="path2518"
       style="fill:#808080;fill-opacity:1;fill-rule:evenodd;stroke:none;stroke-width:0.0541668" /></g></svg>
