<?xml version="1.0" encoding="UTF-8" standalone="no"?>
<svg
   version="1.1"
   viewBox="0 0 16 16"
   id="svg2"
   sodipodi:docname="drive-harddisk-arch.svg"
   inkscape:version="1.4 (e7c3feb100, 2024-10-09)"
   xml:space="preserve"
   inkscape:export-filename="drive-harddisk-arch.png"
   inkscape:export-xdpi="288"
   inkscape:export-ydpi="288"
   xmlns:inkscape="http://www.inkscape.org/namespaces/inkscape"
   xmlns:sodipodi="http://sodipodi.sourceforge.net/DTD/sodipodi-0.dtd"
   xmlns:xlink="http://www.w3.org/1999/xlink"
   xmlns="http://www.w3.org/2000/svg"
   xmlns:svg="http://www.w3.org/2000/svg"><defs
     id="defs2"><linearGradient
       inkscape:collect="always"
       xlink:href="#linearGradient4338-3"
       id="linearGradient951"
       gradientUnits="userSpaceOnUse"
       gradientTransform="matrix(0,-0.03875241,-0.0387513,0,511.63652,77.446607)"
       x1="494.34482"
       y1="313.2872"
       x2="0"
       y2="313.2872" /><linearGradient
       inkscape:collect="always"
       id="linearGradient4338-3"><stop
         id="stop4342-7"
         offset="0"
         style="stop-color:#999999;stop-opacity:1" /><stop
         style="stop-color:#b7b7b7;stop-opacity:1"
         offset="0.61328125"
         id="stop932" /><stop
         id="stop4340-0"
         offset="1"
         style="stop-color:#dbdbdb;stop-opacity:1" /></linearGradient><linearGradient
       inkscape:collect="always"
       xlink:href="#linearGradient927"
       id="linearGradient1004"
       x1="344"
       y1="62"
       x2="344"
       y2="106"
       gradientUnits="userSpaceOnUse" /><linearGradient
       inkscape:collect="always"
       id="linearGradient927"><stop
         style="stop-color:#ffffff;stop-opacity:1;"
         offset="0"
         id="stop923" /><stop
         id="stop933"
         offset="0.125"
         style="stop-color:#ffffff;stop-opacity:0.09803922" /><stop
         id="stop931"
         offset="0.92500001"
         style="stop-color:#ffffff;stop-opacity:0.09803922" /><stop
         style="stop-color:#ffffff;stop-opacity:0.49803922"
         offset="1"
         id="stop925" /></linearGradient><clipPath
       clipPathUnits="userSpaceOnUse"
       id="clipPath994-5"><path
         style="color:#000000;display:inline;overflow:visible;visibility:visible;fill:#cdcdcd;fill-opacity:1;fill-rule:nonzero;stroke:none;stroke-width:2;stroke-miterlimit:4;stroke-dasharray:none;stroke-opacity:1;marker:none;enable-background:accumulate"
         d="m 335.73108,62 c -8.82418,0 -9.77365,0.90635 -9.7304,9.74838 V 84 96.25162 c -0.0433,8.84203 0.90622,9.74838 9.7304,9.74838 h 16.53919 c 8.82418,0 9.7304,-0.90625 9.7304,-9.74838 V 84 71.74838 C 362.00067,62.90625 361.09445,62 352.27027,62 Z"
         id="path996-3"
         inkscape:connector-curvature="0"
         sodipodi:nodetypes="scccssscsss" /></clipPath></defs><sodipodi:namedview
     id="namedview2"
     pagecolor="#ffffff"
     bordercolor="#000000"
     borderopacity="0.25"
     inkscape:showpageshadow="2"
     inkscape:pageopacity="0.0"
     inkscape:pagecheckerboard="0"
     inkscape:deskcolor="#d1d1d1"
     showgrid="false"
     inkscape:zoom="44.446814"
     inkscape:cx="7.222115"
     inkscape:cy="6.5921486"
     inkscape:window-width="1534"
     inkscape:window-height="831"
     inkscape:window-x="0"
     inkscape:window-y="0"
     inkscape:window-maximized="1"
     inkscape:current-layer="g2" /><g
     transform="translate(-492 -60)"
     fill="#808080"
     id="g2"><path
       style="color:#000000;font-style:normal;font-variant:normal;font-weight:normal;font-stretch:normal;font-size:medium;line-height:normal;font-family:sans-serif;font-variant-ligatures:normal;font-variant-position:normal;font-variant-caps:normal;font-variant-numeric:normal;font-variant-alternates:normal;font-feature-settings:normal;text-indent:0;text-align:start;text-decoration:none;text-decoration-line:none;text-decoration-style:solid;text-decoration-color:#000000;letter-spacing:normal;word-spacing:normal;text-transform:none;writing-mode:lr-tb;direction:ltr;text-orientation:mixed;dominant-baseline:auto;baseline-shift:baseline;text-anchor:start;white-space:normal;shape-padding:0;clip-rule:nonzero;display:inline;overflow:visible;visibility:visible;opacity:0.1;isolation:auto;mix-blend-mode:normal;color-interpolation:sRGB;color-interpolation-filters:linearRGB;solid-color:#000000;solid-opacity:1;vector-effect:none;fill:#000000;fill-opacity:1;fill-rule:nonzero;stroke:none;stroke-width:0.68418;stroke-linecap:butt;stroke-linejoin:miter;stroke-miterlimit:4;stroke-dasharray:none;stroke-dashoffset:0;stroke-opacity:1;marker:none;color-rendering:auto;image-rendering:auto;shape-rendering:auto;text-rendering:auto;enable-background:accumulate"
       d="m 496.66732,60.342093 c -0.76054,0 -1.35936,0.01751 -1.85211,0.100228 -0.49274,0.0827 -0.89595,0.237854 -1.19131,0.53251 -0.29534,0.294657 -0.45123,0.697684 -0.53317,1.190635 -0.0819,0.492952 -0.0979,1.093095 -0.0942,1.855439 v 4.189271 4.191274 c -0.003,0.761171 0.0122,1.361011 0.0942,1.853434 0.0819,0.492952 0.23783,0.895977 0.53317,1.190634 0.29536,0.294657 0.69857,0.449801 1.19131,0.532511 0.49275,0.08272 1.09157,0.100228 1.85211,0.100228 h 5.65784 c 0.76053,0 1.35904,-0.01748 1.85077,-0.100228 0.49171,-0.08275 0.89369,-0.238416 1.18795,-0.533178 0.29428,-0.294761 0.44924,-0.697502 0.53185,-1.189967 0.0827,-0.492464 0.10018,-1.09139 0.10018,-1.853434 v -4.191274 -4.191275 c 0,-0.762045 -0.0177,-1.360969 -0.10018,-1.853435 -0.0827,-0.492464 -0.23757,-0.895203 -0.53185,-1.189966 -0.29426,-0.294763 -0.69624,-0.450431 -1.18795,-0.533179 -0.49173,-0.08275 -1.09024,-0.100228 -1.85077,-0.100228 z"
       id="path1020"
       inkscape:connector-curvature="0"
       sodipodi:nodetypes="sccsccccccsscccscsccsss" /><path
       style="color:#000000;display:inline;overflow:visible;visibility:visible;fill:url(#linearGradient951);fill-opacity:1;fill-rule:nonzero;stroke:none;stroke-width:0.342091;marker:none;enable-background:accumulate"
       d="m 502.3247,60.171047 c 0.7576,0 1.3503,0.0187 1.82404,0.09822 0.47372,0.07952 0.83658,0.223843 1.09842,0.485074 0.26185,0.26123 0.40634,0.623404 0.48507,1.097094 0.0787,0.473689 0.0959,1.066772 0.0923,1.82604 v 4.190606 4.191274 c 0.003,0.758871 -0.0137,1.351858 -0.0923,1.825372 -0.0787,0.47369 -0.22322,0.835864 -0.48507,1.097094 -0.26186,0.261231 -0.6247,0.405551 -1.09842,0.485074 -0.47374,0.07952 -1.06644,0.09822 -1.82404,0.09822 h -5.65785 c -0.7576,0 -1.34939,-0.01868 -1.82205,-0.09822 -0.47263,-0.07954 -0.8349,-0.223789 -1.09574,-0.485074 -0.26084,-0.261282 -0.405,-0.623648 -0.48441,-1.097094 -0.0795,-0.473445 -0.0976,-1.066248 -0.0976,-1.825372 v -4.191276 -4.191274 c 0,-0.759122 0.0181,-1.351925 0.0976,-1.825372 0.0795,-0.473445 0.22357,-0.83581 0.48441,-1.097093 0.26084,-0.261283 0.62311,-0.405536 1.09574,-0.485075 0.47266,-0.07954 1.06445,-0.09822 1.82205,-0.09822 z"
       id="path949"
       inkscape:connector-curvature="0" /><path
       id="path901"
       d="m 496.66732,60.171047 c -0.75761,0 -1.35032,0.0187 -1.82405,0.09822 -0.47372,0.07952 -0.83659,0.223843 -1.09843,0.485074 -0.26185,0.26123 -0.40633,0.623404 -0.48506,1.097094 -0.0787,0.473689 -0.0959,1.066772 -0.0923,1.82604 v 4.190606 4.191274 c -0.003,0.758871 0.0137,1.351858 0.0923,1.825372 0.0787,0.47369 0.22321,0.835864 0.48506,1.097094 0.26186,0.261231 0.62471,0.405551 1.09843,0.485074 0.47373,0.07952 1.06644,0.09822 1.82405,0.09822 h 5.65784 c 0.75759,0 1.34938,-0.01868 1.82204,-0.09822 0.47264,-0.07954 0.83491,-0.223789 1.09575,-0.485074 0.26084,-0.261282 0.40499,-0.623648 0.48441,-1.097094 0.0795,-0.473445 0.0976,-1.066248 0.0976,-1.825372 v -4.191276 -4.191274 c 0,-0.759122 -0.0181,-1.351925 -0.0976,-1.825372 -0.0795,-0.473445 -0.22357,-0.83581 -0.48441,-1.097093 -0.26084,-0.261283 -0.62311,-0.405536 -1.09575,-0.485075 -0.47266,-0.07954 -1.06445,-0.09822 -1.82204,-0.09822 z"
       style="color:#000000;display:inline;overflow:visible;visibility:visible;opacity:0.4;fill:none;fill-opacity:1;fill-rule:nonzero;stroke:#000000;stroke-width:0.342091;stroke-opacity:1;marker:none;enable-background:accumulate"
       inkscape:connector-curvature="0" /><path
       transform="matrix(0.34209028,0,0,0.34209028,381.81718,39.132495)"
       sodipodi:nodetypes="scccssscsss"
       inkscape:connector-curvature="0"
       id="path990"
       d="m 335.73108,62 c -8.82418,0 -9.77365,0.90635 -9.7304,9.74838 V 84 96.25162 c -0.0433,8.84203 0.90622,9.74838 9.7304,9.74838 h 16.53919 c 8.82418,0 9.7304,-0.90625 9.7304,-9.74838 V 84 71.74838 C 362.00067,62.90625 361.09445,62 352.27027,62 Z"
       style="color:#000000;display:inline;overflow:visible;visibility:visible;opacity:0.4;fill:none;fill-opacity:1;fill-rule:nonzero;stroke:url(#linearGradient1004);stroke-width:2;stroke-miterlimit:4;stroke-dasharray:none;stroke-opacity:1;marker:none;enable-background:accumulate"
       clip-path="url(#clipPath994-5)" /><path
       d="m 499.49915,63.842 c -0.40065,0.982307 -0.64231,1.62485 -1.08839,2.577957 0.2735,0.289913 0.60921,0.627531 1.15441,1.008839 -0.58614,-0.241192 -0.98596,-0.483343 -1.28475,-0.734625 -0.5709,1.191266 -1.46533,2.88817 -3.28042,6.149519 1.4266,-0.823601 2.53248,-1.33136 3.5631,-1.525107 -0.0443,-0.190342 -0.0694,-0.396233 -0.0677,-0.611059 l 0.002,-0.0457 c 0.0226,-0.913985 0.49809,-1.616839 1.06131,-1.569117 0.56322,0.04772 1.00101,0.827785 0.97837,1.741771 -0.004,0.171983 -0.0237,0.337429 -0.0575,0.490879 1.01943,0.199419 2.11348,0.705878 3.52078,1.518336 -0.27749,-0.510881 -0.52518,-0.971404 -0.76171,-1.410005 -0.37257,-0.28877 -0.76119,-0.664604 -1.55388,-1.071469 0.54485,0.141577 0.93496,0.304917 1.23904,0.487493 -2.40487,-4.47745 -2.59961,-5.072411 -3.4243,-7.007709 z"
       id="path2518"
       style="fill:#ffffff;fill-opacity:1;fill-rule:evenodd;stroke:none;stroke-width:0.0541659;opacity:0.2" /><path
       d="m 499.49897,63.5 c -0.40063,0.982307 -0.64228,1.62485 -1.08835,2.577957 0.27349,0.289913 0.60919,0.627531 1.15437,1.008839 -0.58612,-0.241192 -0.98592,-0.483343 -1.2847,-0.734625 -0.57088,1.191266 -1.46527,2.88817 -3.28029,6.149519 1.42654,-0.823601 2.53238,-1.33136 3.56296,-1.525107 -0.0443,-0.190342 -0.0694,-0.396233 -0.0677,-0.611059 l 0.002,-0.0457 c 0.0226,-0.913985 0.49807,-1.616839 1.06127,-1.569117 0.5632,0.04772 1.00097,0.827785 0.97833,1.741771 -0.004,0.171983 -0.0237,0.337429 -0.0575,0.490879 1.01939,0.199419 2.1134,0.705878 3.52064,1.518336 -0.27748,-0.510881 -0.52516,-0.971404 -0.76168,-1.410005 -0.37255,-0.28877 -0.76116,-0.664604 -1.55382,-1.071469 0.54483,0.141577 0.93493,0.304917 1.23899,0.487493 -2.40477,-4.47745 -2.5995,-5.072411 -3.42416,-7.007709 z"
       id="path2518-7"
       style="fill:#808080;fill-opacity:1;fill-rule:evenodd;stroke:none;stroke-width:0.0541648" /></g></svg>
